<svg width="350.00000000000006" height="188.16286903693677" viewBox="0 0 350.00000000000006 188.16286903693677"
	class="css-1j8o68f">
	<defs id="SvgjsDefs1645"></defs>
	<g id="SvgjsG1646" featurekey="pxMwYC-0"
		transform="matrix(1.483918128654971,0,0,1.483918128654971,100.58040935672514,-20.475101422148143)"
		fill="#01696e">
		<path xmlns="http://www.w3.org/2000/svg"
			d="M50,44.202c-11.6,0-21,9.4-21,21s9.4,21,21,21s21-9.4,21-21S61.6,44.202,50,44.202z M45,74.202v-18l15,9L45,74.202z">
		</path>
		<path xmlns="http://www.w3.org/2000/svg"
			d="M81.289,34.023c1.155-1.824,1.835-3.984,1.835-6.309c0-6.485-5.216-11.744-11.647-11.744c-4.383,0-8.194,2.441-10.184,6.045  c-4.459-5.04-10.947-8.217-18.174-8.217c-12.971,0-23.567,10.223-24.309,23.114C11.056,37.692,5,44.29,5,52.314  c0,8.551,6.873,15.483,15.354,15.483l5.789-0.005C26.051,66.941,26,66.078,26,65.202c0-0.137,0.008-0.272,0.01-0.409l-5.656,0.005  C13.542,64.798,8,59.198,8,52.314c0-6.441,4.776-11.78,11.111-12.417l2.547-0.256l0.147-2.557  c0.654-11.375,10.017-20.286,21.313-20.286c6.07,0,11.876,2.626,15.927,7.205l2.818,3.185l2.056-3.723  c1.529-2.772,4.426-4.495,7.557-4.495c4.769,0,8.647,3.923,8.647,8.744c0,1.663-0.474,3.29-1.369,4.704l-2.351,3.71l4.311,0.84  C87.254,38.242,92,44.055,92,50.789c0,7.699-6.254,13.962-13.943,13.962l-4.068,0.003C73.991,64.904,74,65.052,74,65.202  c0,0.862-0.048,1.714-0.137,2.553l4.195-0.003C87.416,67.751,95,60.224,95,50.789C95,42.47,89.101,35.545,81.289,34.023z">
		</path>
	</g>
	<g id="SvgjsG1647" featurekey="Vx5QiU-0"
		transform="matrix(2.312979704857514,0,0,2.312979704857514,-1.7578628992614131,113.39967796782364)"
		fill="#04292a">
		<path
			d="M0.76 18.54 l1.56 -2.08 q0.72 0.5 1.68 0.84 t1.88 0.34 q0.68 0 1.13 -0.28 t0.45 -0.7 t-0.51 -0.59 t-0.99 -0.24 t-0.62 -0.09 q-1.2 -0.2 -2.07 -0.48 t-1.58 -1 t-0.71 -1.98 q0 -2.08 1.51 -2.78 t3.03 -0.7 q1.3 0 2.4 0.38 t2.18 1.2 l-1.56 2.04 q-0.78 -0.46 -1.54 -0.74 t-1.58 -0.28 q-0.5 0 -0.97 0.22 t-0.47 0.6 q0 0.48 0.65 0.68 t1.43 0.3 q1.4 0.24 2.24 0.5 t1.49 0.97 t0.65 2.01 q0 1.72 -1.18 2.65 t-3.34 0.93 q-3 0 -5.16 -1.72 z M16.52 16.08 q0 0.7 0.24 1.17 t1.12 0.47 q0.4 0 0.76 -0.04 l0 2.52 q-0.72 0.08 -1.34 0.08 q-1.28 0 -2.07 -0.21 t-1.23 -0.81 t-0.44 -1.72 l0 -6.1 l-1.34 0 l0 -2.62 l1.34 0 l0 -2.94 l2.96 0 l0 2.94 l2.2 0 l0 2.62 l-2.2 0 l0 4.64 z M26.26 11.87 q-0.86 0.21 -1.58 0.99 t-0.72 2.28 l0 4.86 l-2.98 0 l0 -11 l2.98 0 l0 1.46 q0.74 -0.98 1.81 -1.33 t1.95 -0.33 l0 2.92 q-0.6 -0.06 -1.46 0.15 z M31.990000000000002 19.74 q-1.37 -0.54 -2.35 -1.83 t-0.98 -3.37 t0.99 -3.36 t2.37 -1.82 t2.62 -0.54 q1.44 0 2.74 0.64 t2.13 1.88 t0.87 2.94 q0 0.52 -0.02 0.9 t-0.04 0.48 l-8.68 0 q0.24 1.16 1.2 1.58 t1.8 0.42 q1.08 0 1.72 -0.39 t1.1 -0.89 l2.32 1.34 q-1.88 2.56 -5.14 2.56 q-1.28 0 -2.65 -0.54 z M32.6 12.05 q-0.78 0.61 -0.88 1.49 l5.5 0 q-0.06 -0.52 -0.4 -1 t-0.91 -0.79 t-1.29 -0.31 q-1.24 0 -2.02 0.61 z M51.14 18.9 q-0.38 0.52 -1.31 0.93 t-2.03 0.41 q-1.7 0 -2.95 -0.76 t-1.91 -2.07 t-0.66 -2.91 t0.66 -2.91 t1.91 -2.07 t2.95 -0.76 q1.14 0 2.01 0.39 t1.33 0.99 l0 -1.14 l2.96 0 l0 11 l-2.96 0 l0 -1.1 z M50.44 12.25 q-0.82 -0.87 -2.2 -0.87 q-1.4 0 -2.21 0.87 t-0.81 2.25 q0 1.34 0.83 2.22 t2.19 0.88 q1.4 0 2.21 -0.83 t0.81 -2.27 q0 -1.38 -0.82 -2.25 z M73.47 10.04 q1.13 1.24 1.13 3.46 l0 6.5 l-3.02 0 l0 -6.5 q0 -1.18 -0.59 -1.7 t-1.55 -0.52 q-0.8 0 -1.44 0.6 t-0.66 2 l0 6.12 l-3.02 0 l0 -6.5 q0 -1.18 -0.59 -1.7 t-1.53 -0.52 q-0.86 0 -1.49 0.64 t-0.63 2.26 l-0.02 5.82 l-2.98 0 l0 -11 l2.98 0 l0 1 q0.58 -0.52 1.4 -0.86 t1.5 -0.34 q2.32 0 3.54 1.5 q0.62 -0.7 1.54 -1.1 t2 -0.4 q2.3 0 3.43 1.24 z M86.03999999999999 18.9 q-0.38 0.52 -1.31 0.93 t-2.03 0.41 q-1.7 0 -2.95 -0.76 t-1.91 -2.07 t-0.66 -2.91 t0.66 -2.91 t1.91 -2.07 t2.95 -0.76 q1.14 0 2.01 0.39 t1.33 0.99 l0 -1.14 l2.96 0 l0 11 l-2.96 0 l0 -1.1 z M85.33999999999999 12.25 q-0.82 -0.87 -2.2 -0.87 q-1.4 0 -2.21 0.87 t-0.81 2.25 q0 1.34 0.83 2.22 t2.19 0.88 q1.4 0 2.21 -0.83 t0.81 -2.27 q0 -1.38 -0.82 -2.25 z M94.44 19.51 q-1.38 -0.77 -2.19 -2.09 t-0.81 -2.88 t0.81 -2.87 t2.18 -2.08 t2.99 -0.77 q1.74 0 3.15 0.83 t2.25 2.37 l-2.7 1.06 q-0.48 -0.82 -1.18 -1.23 t-1.52 -0.41 q-1.3 0 -2.15 0.88 t-0.85 2.22 t0.86 2.22 t2.16 0.88 q1.8 0 2.78 -1.6 l2.54 1 q-1.58 3.24 -5.32 3.24 q-1.62 0 -3 -0.77 z M107.44 19.51 q-1.38 -0.77 -2.19 -2.09 t-0.81 -2.88 t0.81 -2.87 t2.18 -2.08 t2.99 -0.77 q1.74 0 3.15 0.83 t2.25 2.37 l-2.7 1.06 q-0.48 -0.82 -1.18 -1.23 t-1.52 -0.41 q-1.3 0 -2.15 0.88 t-0.85 2.22 t0.86 2.22 t2.16 0.88 q1.8 0 2.78 -1.6 l2.54 1 q-1.58 3.24 -5.32 3.24 q-1.62 0 -3 -0.77 z M120.77 19.74 q-1.37 -0.54 -2.35 -1.83 t-0.98 -3.37 t0.99 -3.36 t2.37 -1.82 t2.62 -0.54 q1.44 0 2.74 0.64 t2.13 1.88 t0.87 2.94 q0 0.52 -0.02 0.9 t-0.04 0.48 l-8.68 0 q0.24 1.16 1.2 1.58 t1.8 0.42 q1.08 0 1.72 -0.39 t1.1 -0.89 l2.32 1.34 q-1.88 2.56 -5.14 2.56 q-1.28 0 -2.65 -0.54 z M121.38 12.05 q-0.78 0.61 -0.88 1.49 l5.5 0 q-0.06 -0.52 -0.4 -1 t-0.91 -0.79 t-1.29 -0.31 q-1.24 0 -2.02 0.61 z M130.95999999999998 18.54 l1.56 -2.08 q0.72 0.5 1.68 0.84 t1.88 0.34 q0.68 0 1.13 -0.28 t0.45 -0.7 t-0.51 -0.59 t-0.99 -0.24 t-0.62 -0.09 q-1.2 -0.2 -2.07 -0.48 t-1.58 -1 t-0.71 -1.98 q0 -2.08 1.51 -2.78 t3.03 -0.7 q1.3 0 2.4 0.38 t2.18 1.2 l-1.56 2.04 q-0.78 -0.46 -1.54 -0.74 t-1.58 -0.28 q-0.5 0 -0.97 0.22 t-0.47 0.6 q0 0.48 0.65 0.68 t1.43 0.3 q1.4 0.24 2.24 0.5 t1.49 0.97 t0.65 2.01 q0 1.72 -1.18 2.65 t-3.34 0.93 q-3 0 -5.16 -1.72 z M142.39999999999998 18.54 l1.56 -2.08 q0.72 0.5 1.68 0.84 t1.88 0.34 q0.68 0 1.13 -0.28 t0.45 -0.7 t-0.51 -0.59 t-0.99 -0.24 t-0.62 -0.09 q-1.2 -0.2 -2.07 -0.48 t-1.58 -1 t-0.71 -1.98 q0 -2.08 1.51 -2.78 t3.03 -0.7 q1.3 0 2.4 0.38 t2.18 1.2 l-1.56 2.04 q-0.78 -0.46 -1.54 -0.74 t-1.58 -0.28 q-0.5 0 -0.97 0.22 t-0.47 0.6 q0 0.48 0.65 0.68 t1.43 0.3 q1.4 0.24 2.24 0.5 t1.49 0.97 t0.65 2.01 q0 1.72 -1.18 2.65 t-3.34 0.93 q-3 0 -5.16 -1.72 z">
		</path>
	</g>
	<g id="SvgjsG1648" featurekey="aAUSXE-0"
		transform="matrix(1.0928321422507492,0,0,1.0928321422507492,27.125734729136926,165.97837503804794)"
		fill="#01696e">
		<path
			d="M12.28 15.8 q0 0.9 -0.39 1.71 t-1.09 1.43 t-1.66 0.99 t-2.12 0.37 q-1.04 0 -1.87 -0.12 t-1.56 -0.38 t-1.4 -0.67 t-1.39 -0.99 l2.2 -2.22 q0.96 0.8 1.88 1.13 t2 0.33 q0.44 0 0.83 -0.13 t0.68 -0.35 t0.46 -0.52 t0.17 -0.66 q0 -0.38 -0.14 -0.68 t-0.5 -0.58 t-1 -0.57 t-1.64 -0.65 q-0.88 -0.32 -1.69 -0.73 t-1.42 -0.99 t-0.98 -1.36 t-0.37 -1.84 q0 -1.02 0.41 -1.88 t1.12 -1.47 t1.66 -0.95 t2.05 -0.34 q1.84 0 3.1 0.48 t2.24 1.4 l-2.16 2.18 q-0.6 -0.58 -1.34 -0.89 t-1.74 -0.31 q-0.46 0 -0.85 0.14 t-0.67 0.37 t-0.45 0.54 t-0.17 0.65 q0 0.38 0.16 0.69 t0.54 0.6 t1.01 0.58 t1.57 0.63 q1.2 0.42 2.06 0.92 t1.4 1.1 t0.8 1.35 t0.26 1.69 z M36.88 20 l-10.82 0 l0 -15.98 l3.16 0 l0 12.98 l7.66 0 l0 3 z M65.58 12 q0 1.72 -0.67 3.24 t-1.83 2.64 t-2.7 1.77 t-3.28 0.65 t-3.29 -0.65 t-2.71 -1.77 t-1.83 -2.63 t-0.67 -3.25 t0.67 -3.26 t1.83 -2.64 t2.71 -1.76 t3.29 -0.64 t3.28 0.64 t2.7 1.77 t1.83 2.64 t0.67 3.25 z M62.46 12 q0 -1.1 -0.42 -2.07 t-1.15 -1.7 t-1.71 -1.16 t-2.08 -0.43 q-1.12 0 -2.1 0.43 t-1.71 1.16 t-1.15 1.7 t-0.42 2.07 q0 1.08 0.42 2.06 t1.15 1.71 t1.71 1.16 t2.1 0.43 q1.1 0 2.08 -0.43 t1.71 -1.16 t1.15 -1.71 t0.42 -2.06 z M94.28 17.06 q-0.68 0.84 -1.48 1.45 t-1.67 1.01 t-1.78 0.59 t-1.81 0.19 q-1.78 0 -3.34 -0.64 t-2.72 -1.76 t-1.84 -2.64 t-0.68 -3.28 q0 -1.72 0.67 -3.23 t1.84 -2.63 t2.73 -1.77 t3.34 -0.65 q2.06 0 3.75 0.84 t2.87 2.24 l-2.1 2.14 q-0.9 -1.22 -2.02 -1.75 t-2.5 -0.53 q-1.14 0 -2.14 0.42 t-1.75 1.15 t-1.18 1.7 t-0.43 2.07 q0 1.12 0.43 2.09 t1.18 1.71 t1.75 1.16 t2.14 0.42 q1.08 0 2.04 -0.4 t1.72 -1.06 l0 -1.54 l-3.28 0 l0 -2.64 l6.26 0 l0 5.34 z M124.10000000000001 20 l-3.4 0 l-1.48 -3.2 l-7.76 0 l-1.5 3.2 l-3.4 0 l7.56 -16 l2.42 0 z M118.00000000000001 14.219999999999999 l-2.66 -5.76 l-2.7 5.76 l5.36 0 z M150.58 20 l-3.04 0 l-7.22 -11.22 l0 11.22 l-3.04 0 l0 -16 l3.48 0 l6.78 10.44 l0 -10.44 l3.04 0 l0 16 z M194.02 6.779999999999999 l-4.42 0 l0 13.22 l-3.14 0 l0 -13.22 l-4.42 0 l0 -2.76 l11.98 0 l0 2.76 z M218.16 20 l-10.56 0 l0 -15.98 l10.56 0 l0 2.56 l-7.52 0 l0 3.82 l7.42 0 l0 2.5 l-7.42 0 l0 4.4 l7.52 0 l0 2.7 z M246.34 20 l-3.82 0 l-3.98 -6.08 l-3.98 6.08 l-3.82 0 l5.84 -8.3 l-5.36 -7.7 l3.76 0 l3.56 5.42 l3.54 -5.42 l3.82 0 l-5.4 7.68 z M270.5 6.779999999999999 l-4.42 0 l0 13.22 l-3.14 0 l0 -13.22 l-4.42 0 l0 -2.76 l11.98 0 l0 2.76 z">
		</path>
	</g>
</svg>